HIERARCHY
ROOT Hips
{
	OFFSET 0.000000 97.167313 0.000000
	CHANNELS 6 Xposition Yposition Zposition Xrotation Yrotation Zrotation
	JOINT Spine
	{
		OFFSET 0.000000 13.784798 0.064400
		CHANNELS 3 Xrotation Yrotation Zrotation
		JOINT Spine1
		{
			OFFSET 0.000000 12.037903 0.404700
			CHANNELS 3 Xrotation Yrotation Zrotation
			JOINT Spine2
			{
				OFFSET 0.000000 17.795601 0.420200
				CHANNELS 3 Xrotation Yrotation Zrotation
				JOINT Neck
				{
					OFFSET 0.000000 39.131302 11.954600
					CHANNELS 3 Xrotation Yrotation Zrotation
					JOINT Head
					{
						OFFSET 0.000000 14.456192 15.627699
						CHANNELS 3 Xrotation Yrotation Zrotation
						JOINT HeadTop_End
						{
							OFFSET 0.000000 15.703506 7.603401
							CHANNELS 3 Xrotation Yrotation Zrotation
							End Site
							{
								OFFSET 0.000000 17.447403 0.000000
							}
						}
					}
				}
				JOINT LeftShoulder
				{
					OFFSET 17.399500 24.608795 1.168800
					CHANNELS 3 Xrotation Yrotation Zrotation
					JOINT LeftArm
					{
						OFFSET 18.980635 5.765305 1.818600
						CHANNELS 3 Xrotation Yrotation Zrotation
						JOINT LeftForeArm
						{
							OFFSET 49.290169 0.000000 0.000000
							CHANNELS 3 Xrotation Yrotation Zrotation
							JOINT LeftHand
							{
								OFFSET 31.562012 0.000000 0.000000
								CHANNELS 3 Xrotation Yrotation Zrotation
								JOINT LeftHandThumb1
								{
									OFFSET 6.133995 -4.388519 7.076070
									CHANNELS 3 Xrotation Yrotation Zrotation
									JOINT LeftHandThumb2
									{
										OFFSET 6.037666 -3.485840 3.485847
										CHANNELS 3 Xrotation Yrotation Zrotation
										JOINT LeftHandThumb3
										{
											OFFSET 6.496506 -3.750763 3.750761
											CHANNELS 3 Xrotation Yrotation Zrotation
											JOINT LeftHandThumb4
											{
												OFFSET 5.616882 -3.242905 3.242910
												CHANNELS 3 Xrotation Yrotation Zrotation
												End Site
												{
													OFFSET -1.254608 7.132141 0.375429
												}
											}
										}
									}
								}
								JOINT LeftHandPinky1
								{
									OFFSET 18.920792 -0.453171 -11.426712
									CHANNELS 3 Xrotation Yrotation Zrotation
									JOINT LeftHandPinky2
									{
										OFFSET 4.919586 0.000000 0.000000
										CHANNELS 3 Xrotation Yrotation Zrotation
										JOINT LeftHandPinky3
										{
											OFFSET 5.233047 0.000000 0.000000
											CHANNELS 3 Xrotation Yrotation Zrotation
											JOINT LeftHandPinky4
											{
												OFFSET 5.571716 0.000000 0.000000
												CHANNELS 3 Xrotation Yrotation Zrotation
												End Site
												{
													OFFSET -3.459808 4.342407 -0.466164
												}
											}
										}
									}
								}
								JOINT LeftHandRing1
								{
									OFFSET 22.726120 -0.094986 -6.500475
									CHANNELS 3 Xrotation Yrotation Zrotation
									JOINT LeftHandRing2
									{
										OFFSET 6.408615 0.000000 0.000000
										CHANNELS 3 Xrotation Yrotation Zrotation
										JOINT LeftHandRing3
										{
											OFFSET 6.150223 0.000000 0.000000
											CHANNELS 3 Xrotation Yrotation Zrotation
											JOINT LeftHandRing4
											{
												OFFSET 6.145386 0.000000 0.000000
												CHANNELS 3 Xrotation Yrotation Zrotation
												End Site
												{
													OFFSET -3.671402 4.923981 -0.202372
												}
											}
										}
									}
								}
								JOINT LeftHandMiddle1
								{
									OFFSET 23.373947 0.000000 0.000001
									CHANNELS 3 Xrotation Yrotation Zrotation
									JOINT LeftHandMiddle2
									{
										OFFSET 6.996567 0.000000 0.000000
										CHANNELS 3 Xrotation Yrotation Zrotation
										JOINT LeftHandMiddle3
										{
											OFFSET 7.015945 0.000000 0.000000
											CHANNELS 3 Xrotation Yrotation Zrotation
											JOINT LeftHandMiddle4
											{
												OFFSET 7.721573 0.000000 0.000000
												CHANNELS 3 Xrotation Yrotation Zrotation
												End Site
												{
													OFFSET -4.651108 6.158463 0.251582
												}
											}
										}
									}
								}
								JOINT LeftHandIndex1
								{
									OFFSET 21.310577 -0.490082 6.209344
									CHANNELS 3 Xrotation Yrotation Zrotation
									JOINT LeftHandIndex2
									{
										OFFSET 7.536453 0.000000 0.000000
										CHANNELS 3 Xrotation Yrotation Zrotation
										JOINT LeftHandIndex3
										{
											OFFSET 7.512344 0.000000 0.000000
											CHANNELS 3 Xrotation Yrotation Zrotation
											JOINT LeftHandIndex4
											{
												OFFSET 10.212402 0.000000 0.000001
												CHANNELS 3 Xrotation Yrotation Zrotation
												End Site
												{
													OFFSET -5.180801 8.690506 1.388433
												}
											}
										}
									}
								}
							}
						}
					}
				}
				JOINT RightShoulder
				{
					OFFSET -17.399500 24.608795 1.168800
					CHANNELS 3 Xrotation Yrotation Zrotation
					JOINT RightArm
					{
						OFFSET -18.980635 5.765305 1.818600
						CHANNELS 3 Xrotation Yrotation Zrotation
						JOINT RightForeArm
						{
							OFFSET -49.290169 0.000000 0.000000
							CHANNELS 3 Xrotation Yrotation Zrotation
							JOINT RightHand
							{
								OFFSET -31.562012 0.000000 0.000000
								CHANNELS 3 Xrotation Yrotation Zrotation
								JOINT RightHandThumb1
								{
									OFFSET -6.133995 -4.388519 7.076070
									CHANNELS 3 Xrotation Yrotation Zrotation
									JOINT RightHandThumb2
									{
										OFFSET -6.037666 -3.485840 3.485847
										CHANNELS 3 Xrotation Yrotation Zrotation
										JOINT RightHandThumb3
										{
											OFFSET -6.496506 -3.750763 3.750761
											CHANNELS 3 Xrotation Yrotation Zrotation
											JOINT RightHandThumb4
											{
												OFFSET -5.616882 -3.242905 3.242910
												CHANNELS 3 Xrotation Yrotation Zrotation
												End Site
												{
													OFFSET 1.254608 7.132141 0.375429
												}
											}
										}
									}
								}
								JOINT RightHandIndex1
								{
									OFFSET -21.310577 -0.490082 6.209344
									CHANNELS 3 Xrotation Yrotation Zrotation
									JOINT RightHandIndex2
									{
										OFFSET -7.536453 0.000000 0.000000
										CHANNELS 3 Xrotation Yrotation Zrotation
										JOINT RightHandIndex3
										{
											OFFSET -7.512344 0.000000 0.000000
											CHANNELS 3 Xrotation Yrotation Zrotation
											JOINT RightHandIndex4
											{
												OFFSET -10.212402 0.000000 0.000001
												CHANNELS 3 Xrotation Yrotation Zrotation
												End Site
												{
													OFFSET 5.180801 8.690506 1.388433
												}
											}
										}
									}
								}
								JOINT RightHandMiddle1
								{
									OFFSET -23.373947 0.000000 0.000001
									CHANNELS 3 Xrotation Yrotation Zrotation
									JOINT RightHandMiddle2
									{
										OFFSET -6.996567 0.000000 0.000000
										CHANNELS 3 Xrotation Yrotation Zrotation
										JOINT RightHandMiddle3
										{
											OFFSET -7.015945 0.000000 0.000000
											CHANNELS 3 Xrotation Yrotation Zrotation
											JOINT RightHandMiddle4
											{
												OFFSET -7.721573 0.000000 0.000000
												CHANNELS 3 Xrotation Yrotation Zrotation
												End Site
												{
													OFFSET 4.651108 6.158463 0.251582
												}
											}
										}
									}
								}
								JOINT RightHandRing1
								{
									OFFSET -22.726120 -0.094986 -6.500475
									CHANNELS 3 Xrotation Yrotation Zrotation
									JOINT RightHandRing2
									{
										OFFSET -6.408615 0.000000 0.000000
										CHANNELS 3 Xrotation Yrotation Zrotation
										JOINT RightHandRing3
										{
											OFFSET -6.150223 0.000000 0.000000
											CHANNELS 3 Xrotation Yrotation Zrotation
											JOINT RightHandRing4
											{
												OFFSET -6.145386 0.000000 0.000000
												CHANNELS 3 Xrotation Yrotation Zrotation
												End Site
												{
													OFFSET 3.671402 4.923981 -0.202372
												}
											}
										}
									}
								}
								JOINT RightHandPinky1
								{
									OFFSET -18.920792 -0.453171 -11.426712
									CHANNELS 3 Xrotation Yrotation Zrotation
									JOINT RightHandPinky2
									{
										OFFSET -4.919586 0.000000 0.000000
										CHANNELS 3 Xrotation Yrotation Zrotation
										JOINT RightHandPinky3
										{
											OFFSET -5.233047 0.000000 0.000000
											CHANNELS 3 Xrotation Yrotation Zrotation
											JOINT RightHandPinky4
											{
												OFFSET -5.571716 0.000000 0.000000
												CHANNELS 3 Xrotation Yrotation Zrotation
												End Site
												{
													OFFSET 3.459808 4.342407 -0.466164
												}
											}
										}
									}
								}
							}
						}
					}
				}
			}
		}
	}
	JOINT LeftUpLeg
	{
		OFFSET 19.899099 -7.885101 -3.429500
		CHANNELS 3 Xrotation Yrotation Zrotation
		JOINT LeftLeg
		{
			OFFSET 1.745560 -36.997807 10.304700
			CHANNELS 3 Xrotation Yrotation Zrotation
			JOINT LeftFoot
			{
				OFFSET -1.745558 -29.803308 -13.615400
				CHANNELS 3 Xrotation Yrotation Zrotation
				JOINT LeftToeBase
				{
					OFFSET 1.181900 -18.539904 15.226099
					CHANNELS 3 Xrotation Yrotation Zrotation
					JOINT LeftToe_End
					{
						OFFSET -0.863701 1.402801 16.534700
						CHANNELS 3 Xrotation Yrotation Zrotation
						End Site
						{
							OFFSET 0.000000 16.616566 0.000000
						}
					}
				}
			}
		}
	}
	JOINT RightUpLeg
	{
		OFFSET -19.899099 -7.885101 -3.429500
		CHANNELS 3 Xrotation Yrotation Zrotation
		JOINT RightLeg
		{
			OFFSET -1.745560 -36.997807 10.304700
			CHANNELS 3 Xrotation Yrotation Zrotation
			JOINT RightFoot
			{
				OFFSET 1.745558 -29.803308 -13.615400
				CHANNELS 3 Xrotation Yrotation Zrotation
				JOINT RightToeBase
				{
					OFFSET -1.181900 -18.539904 15.226099
					CHANNELS 3 Xrotation Yrotation Zrotation
					JOINT RightToe_End
					{
						OFFSET 0.863701 1.402801 16.534700
						CHANNELS 3 Xrotation Yrotation Zrotation
						End Site
						{
							OFFSET 0.000000 16.616566 0.000000
						}
					}
				}
			}
		}
	}
}
MOTION
Frames: 5
Frame Time: 0.033333
1.988590 93.151695 2.525502 -0.028057 15.940347 -1.312345 3.025119 -0.522744 -0.046574 3.888205 -0.079860 2.685200 -4.402948 -0.290281 0.882361 1.912636 -2.827572 5.357317 -2.736606 -1.265597 -2.656758 0.000000 -0.000000 -0.000000 4.345231 -7.002054 -5.366968 -0.000793 -15.047346 -71.986922 0.083167 -11.428136 0.558864 -0.320531 1.972821 5.738706 -3.786355 8.449170 12.340904 7.447455 11.616355 -1.292503 1.137472 8.847189 5.189563 0.000003 0.000002 0.000004 -6.431991 11.273353 -19.772778 0.043710 0.252798 -30.857463 0.023058 0.143095 -11.459601 -0.000000 0.000001 -0.000007 -4.878330 10.020427 -7.874568 -0.049477 0.342424 -30.085945 0.072392 0.713129 -12.602554 0.000000 -0.000001 0.000005 -1.929881 5.642994 -11.387502 0.101925 0.663114 -24.767555 0.045545 0.057738 -9.474873 0.000000 -0.000001 0.000004 2.380279 3.620336 -6.815269 0.011796 0.256035 -17.103629 0.043246 0.181873 -12.954527 -0.000003 0.000001 0.000001 3.749623 0.123242 2.582718 0.187328 4.688841 76.484445 0.116248 14.866653 -0.565860 -4.293185 -1.766190 -5.203942 -0.464226 -8.992453 -6.084794 7.446401 -11.613879 1.293104 1.132864 -8.845355 -5.187218 -0.000003 0.000003 0.000003 2.362107 -3.634228 8.333124 0.017433 -0.256765 18.622618 0.048088 -0.182389 14.473418 -0.000001 -0.000001 -0.000001 -1.983702 -5.671242 13.530206 0.128404 -0.657084 26.914164 0.041945 -0.053320 11.621517 -0.000001 0.000002 -0.000006 -4.981904 -10.101530 10.695090 -0.029876 -0.342586 32.923988 0.111726 -0.702936 15.440657 -0.000001 0.000000 -0.000007 -6.474108 -11.323075 23.226024 0.061837 -0.253041 34.317941 0.031543 -0.139455 14.920024 0.000001 0.000001 0.000006 -12.081199 12.653124 19.893797 11.189969 8.093166 -1.246607 3.531713 2.182653 -14.061427 -0.002509 -1.861393 -0.000060 0.000000 -0.000002 -0.000000 1.780065 -8.078420 -0.214989 11.978412 -10.934368 0.147438 -12.827488 -1.863974 4.139549 -0.008174 -0.000003 0.000279 -0.000000 0.000000 -0.000000 
1.956360 93.186737 2.486643 -0.119948 16.061205 -1.275485 3.258356 -0.473878 -0.100458 3.758221 -0.224199 2.673602 -4.439036 -0.213482 0.832714 1.795543 -2.362722 5.470004 -2.499917 -0.702588 -2.938617 0.000000 0.000001 -0.000001 4.333381 -7.125304 -5.356722 0.026938 -14.817460 -72.038183 0.083193 -11.428024 0.610073 -0.538497 2.001350 5.789711 -3.786400 8.449188 12.340956 7.447460 11.616351 -1.292496 1.137484 8.847177 5.189575 0.000001 0.000001 -0.000001 -6.436855 11.272903 -19.740743 0.043636 0.252698 -30.835692 0.023026 0.143004 -11.438171 0.000001 -0.000001 0.000001 -4.882830 10.008192 -7.847931 -0.049480 0.342308 -30.067101 0.072224 0.713039 -12.584013 0.000000 -0.000001 0.000003 -1.934476 5.621190 -11.365278 0.101843 0.663064 -24.751721 0.045504 0.057659 -9.459027 -0.000000 -0.000000 0.000004 2.378699 3.583593 -6.791526 0.011759 0.256040 -17.088281 0.043191 0.181870 -12.938797 -0.000001 0.000003 0.000002 3.736817 0.293744 2.611598 0.090766 4.468404 76.540063 0.136801 14.823910 -0.515246 -4.094508 -1.779756 -5.264178 -0.492542 -8.923434 -6.069553 7.487117 -11.700448 1.279579 1.151570 -8.901111 -5.197552 0.000001 0.000003 0.000003 2.375545 -3.717622 8.353599 0.017480 -0.256782 18.634812 0.048114 -0.182382 14.485590 0.000000 -0.000001 -0.000003 -1.973357 -5.726748 13.494484 0.128271 -0.656995 26.890820 0.041841 -0.053205 11.597750 -0.000002 0.000003 -0.000004 -4.988674 -10.136108 10.607474 -0.029923 -0.342190 32.867663 0.111218 -0.702718 15.384941 -0.000000 0.000001 -0.000003 -6.495247 -11.330389 23.090935 0.061576 -0.252670 34.228854 0.031294 -0.139065 14.832213 -0.000000 0.000001 0.000003 -12.052892 12.730823 19.863006 11.038568 7.948451 -1.263062 3.671756 2.134730 -13.972854 -0.007196 -1.842483 0.008763 -0.000000 0.000003 0.000000 1.911768 -8.036702 -0.154127 11.894926 -11.026412 0.083205 -12.817816 -1.963578 4.130349 0.002662 0.016482 0.017327 -0.000000 0.000000 0.000000 
1.920536 93.227165 2.446188 -0.211875 16.190470 -1.238726 3.495277 -0.426334 -0.153311 3.626541 -0.368684 2.661777 -4.476629 -0.136981 0.781193 1.815609 -1.804413 5.260326 -2.377553 -0.174831 -3.051182 -0.000000 0.000000 -0.000000 4.321684 -7.249518 -5.340933 0.043422 -14.591536 -72.104647 0.083119 -11.415466 0.660696 -0.752275 1.994295 5.838749 -3.786379 8.449176 12.340955 7.447450 11.616369 -1.292492 1.137480 8.847171 5.189573 0.000004 0.000001 -0.000002 -6.453459 11.271071 -19.647005 0.043460 0.252451 -30.772816 0.022892 0.142734 -11.376419 0.000001 0.000003 -0.000000 -4.900901 9.971328 -7.770389 -0.049513 0.341934 -30.012934 0.071736 0.712801 -12.530557 -0.000000 0.000000 -0.000000 -1.953632 5.556140 -11.300583 0.101620 0.662871 -24.706092 0.045305 0.057407 -9.413548 -0.000001 0.000000 0.000006 2.357185 3.477741 -6.721973 0.011732 0.255989 -17.043798 0.043011 0.181835 -12.893603 -0.000001 0.000001 0.000001 3.722945 0.460156 2.644078 -0.001807 4.254504 76.599376 0.151775 14.788427 -0.465722 -3.901609 -1.793138 -5.320755 -0.461137 -8.999988 -6.086455 7.445637 -11.612307 1.293313 1.155484 -8.912806 -5.199719 -0.000001 -0.000001 0.000002 2.363364 -3.693653 8.298530 0.017430 -0.256751 18.599578 0.047987 -0.182380 14.449472 0.000000 0.000001 -0.000001 -1.973957 -5.739098 13.454917 0.128137 -0.656908 26.864225 0.041746 -0.053069 11.572103 -0.000002 0.000001 -0.000004 -4.984794 -10.182500 10.572224 -0.029952 -0.342065 32.847688 0.111031 -0.702643 15.364780 -0.000000 0.000001 -0.000001 -6.485140 -11.417618 23.057103 0.061505 -0.252608 34.211366 0.031254 -0.138969 14.813902 -0.000001 -0.000001 -0.000003 -11.995715 12.755939 19.841896 10.852890 7.852657 -1.281733 3.840717 2.091246 -13.905961 0.001771 -1.864605 0.000041 -0.000000 -0.000002 0.000000 2.061199 -8.001172 -0.121560 11.777945 -11.138263 0.072097 -12.790407 -2.018854 4.140260 -0.019011 0.009093 -0.020280 -0.000000 0.000000 -0.000000 
1.886355 93.265587 2.405621 -0.304083 16.315302 -1.200153 3.730535 -0.378224 -0.207770 3.495557 -0.513096 2.650086 -4.513264 -0.060344 0.730609 1.819504 -1.307945 5.191302 -2.342756 0.338196 -3.180459 0.000000 -0.000000 -0.000000 4.313428 -7.371369 -5.235959 -0.045424 -14.406134 -72.266209 0.081711 -11.277866 0.717208 -0.962937 1.961337 5.886342 -3.786378 8.449200 12.340934 7.447453 11.616349 -1.292496 1.137476 8.847174 5.189573 -0.000002 0.000001 -0.000004 -6.477361 11.266009 -19.497690 0.043179 0.252032 -30.672617 0.022631 0.142264 -11.277938 -0.000000 0.000002 -0.000002 -4.929531 9.912555 -7.646790 -0.049577 0.341344 -29.926528 0.070979 0.712426 -12.445323 0.000000 0.000000 0.000003 -1.983834 5.452416 -11.197518 0.101233 0.662577 -24.633209 0.045020 0.057054 -9.341021 0.000001 -0.000000 0.000008 2.318099 3.309527 -6.610837 0.011636 0.255936 -16.972955 0.042756 0.181819 -12.821425 -0.000000 0.000003 -0.000001 3.710257 0.628740 2.674975 -0.095181 4.037051 76.656579 0.169602 14.749560 -0.415580 -3.705921 -1.807318 -5.379245 -0.453418 -9.029753 -6.091575 7.445310 -11.611558 1.293451 1.113075 -8.786437 -5.176217 -0.000002 0.000002 -0.000002 2.311895 -3.493603 8.168064 0.017320 -0.256681 18.514032 0.047669 -0.182354 14.366745 0.000000 -0.000001 0.000001 -2.005393 -5.583549 13.381526 0.127848 -0.656703 26.811139 0.041527 -0.052820 11.520263 0.000003 -0.000001 -0.000004 -5.018258 -10.052738 10.527312 -0.029964 -0.341816 32.809985 0.110687 -0.702489 15.328714 0.000001 -0.000000 -0.000005 -6.511002 -11.321020 23.029103 0.061428 -0.252505 34.186685 0.031189 -0.138878 14.790559 -0.000000 0.000000 0.000004 -11.919910 12.723424 19.809456 10.711644 7.811019 -1.282978 3.916750 2.050912 -13.867774 -0.009579 -1.900037 -0.019649 -0.000000 0.000001 0.000000 2.217877 -7.976841 -0.121464 11.674886 -11.303745 0.106509 -12.771149 -2.017090 4.131283 -0.006874 0.023842 -0.030033 -0.000000 0.000000 -0.000000 
1.861003 93.296173 2.367450 -0.396755 16.423303 -1.163147 3.958682 -0.327546 -0.261242 3.367668 -0.657152 2.638900 -4.546467 0.016993 0.683777 1.643207 -0.838420 5.344519 -2.120200 0.888830 -3.354780 0.000000 -0.000001 -0.000001 4.306659 -7.489157 -5.101636 -0.160358 -14.228930 -72.463437 0.073224 -11.101702 0.766135 -1.171585 1.912142 5.938835 -3.786374 8.449184 12.340894 7.447452 11.616360 -1.292508 1.137480 8.847173 5.189554 -0.000000 0.000002 0.000000 -6.511219 11.258794 -19.298063 0.042820 0.252196 -30.538735 0.022287 0.141652 -11.146348 0.000000 0.000001 -0.000000 -4.967434 9.833932 -7.481795 -0.049596 0.340584 -29.811088 0.069940 0.711905 -12.331521 -0.000000 0.000000 0.000003 -2.023591 5.313728 -11.059980 0.100706 0.662215 -24.535952 0.044678 0.056541 -9.244093 0.000001 -0.000001 0.000008 2.266892 3.084686 -6.462802 0.011578 0.255846 -16.878284 0.042367 0.181780 -12.725097 -0.000000 0.000002 -0.000003 3.706365 0.805701 2.700006 -0.194850 3.806122 76.705982 0.198468 14.695326 -0.363211 -3.499126 -1.827375 -5.445384 -0.469672 -8.967395 -6.080787 7.465997 -11.655581 1.286564 1.129522 -8.835373 -5.185337 0.000002 -0.000002 0.000001 2.322064 -3.550242 8.176775 0.017351 -0.256685 18.518963 0.047686 -0.182349 14.371451 -0.000001 -0.000003 0.000001 -1.997912 -5.666553 13.314569 0.127613 -0.656549 26.767564 0.041359 -0.052593 11.477400 -0.000001 0.000002 -0.000006 -5.019098 -10.166240 10.377361 -0.030026 -0.341198 32.716490 0.109821 -0.702114 15.235814 -0.000001 0.000001 -0.000003 -6.512908 -11.464125 22.792939 0.060964 -0.251926 34.039344 0.030766 -0.138203 14.643681 0.000002 -0.000001 -0.000001 -11.829611 12.637358 19.762001 10.630281 7.819790 -1.233960 3.926162 2.027006 -13.901057 0.019308 -1.946739 -0.083946 0.000000 0.000001 0.000000 2.361939 -7.894456 -0.145130 11.605713 -11.542867 0.139580 -12.765865 -1.978929 4.167328 0.052582 0.076338 0.022297 0.000000 0.000000 -0.000000 
